HIERARCHY
ROOT Hips
{
	OFFSET 0.00 0.00 0.00
	CHANNELS 6 Xposition Yposition Zposition Xrotation Yrotation Zrotation
	JOINT Spine
	{
		OFFSET 0.00000 1.15266 1.72900
		CHANNELS 3 Xrotation Yrotation Zrotation
		JOINT Spine1
		{
			OFFSET 0.00000 0.40032 2.27031
			CHANNELS 3 Xrotation Yrotation Zrotation
			JOINT Spine2
			{
				OFFSET 0.00000 0.20092 2.29656
				CHANNELS 3 Xrotation Yrotation Zrotation
				JOINT Spine3
				{
					OFFSET 0.00000 0.00000 2.30533
					CHANNELS 3 Xrotation Yrotation Zrotation
					JOINT Neck
					{
						OFFSET 0.00000 -0.86449 6.05149
						CHANNELS 3 Xrotation Yrotation Zrotation
						JOINT Head
						{
							OFFSET 0.00000 -0.55043 3.12167
							CHANNELS 3 Xrotation Yrotation Zrotation
							End Site
							{
								OFFSET 0.00000 0.00000 3.73175
							}
						}
					}
					JOINT RightShoulder
					{
						OFFSET -0.78828 -1.31380 4.25672
						CHANNELS 3 Xrotation Yrotation Zrotation
						JOINT RightArm
						{
							OFFSET -3.91513 0.00000 0.00000
							CHANNELS 3 Xrotation Yrotation Zrotation
							JOINT RightForeArm
							{
								OFFSET -6.91491 0.00000 0.00000
								CHANNELS 3 Xrotation Yrotation Zrotation
								JOINT RightHand
								{
									OFFSET -6.09622 0.00000 0.00000
									CHANNELS 3 Xrotation Yrotation Zrotation
									JOINT RightHandEnd
									{
										OFFSET -1.74995 0.00000 0.00000
										CHANNELS 3 Xrotation Yrotation Zrotation
										End Site
										{
											OFFSET -1.74995 0.00000 0.00000
										}
									}
									JOINT RightHandThumb1
									{
										OFFSET -0.69998 -1.16663 -0.46665
										CHANNELS 3 Yrotation Xrotation Zrotation
										End Site
										{
											OFFSET -1.69032 -0.45292 0.00000
										}
									}
								}
							}
						}
					}
					JOINT LeftShoulder
					{
						OFFSET 0.78828 -1.31380 4.25672
						CHANNELS 3 Xrotation Yrotation Zrotation
						JOINT LeftArm
						{
							OFFSET 3.91513 0.00000 0.00000
							CHANNELS 3 Xrotation Yrotation Zrotation
							JOINT LeftForeArm
							{
								OFFSET 6.91491 0.00000 0.00000
								CHANNELS 3 Xrotation Yrotation Zrotation
								JOINT LeftHand
								{
									OFFSET 6.09622 0.00000 0.00000
									CHANNELS 3 Xrotation Yrotation Zrotation
									JOINT LeftHandEnd
									{
										OFFSET 1.74995 0.00000 0.00000
										CHANNELS 3 Xrotation Yrotation Zrotation
										End Site
										{
											OFFSET 1.74995 0.00000 0.00000
										}
									}
									JOINT LeftHandThumb1
									{
										OFFSET 0.69998 -1.16663 -0.46665
										CHANNELS 3 Yrotation Xrotation Zrotation
										End Site
										{
											OFFSET 1.69032 -0.45292 0.00000
										}
									}
								}
							}
						}
					}
				}
			}
		}
	}
	JOINT RightUpLeg
	{
		OFFSET -2.33857 0.00000 -0.68318
		CHANNELS 3 Xrotation Yrotation Zrotation
		JOINT RightLeg
		{
			OFFSET 0.00000 0.00000 -10.74496
			CHANNELS 3 Xrotation Yrotation Zrotation
			JOINT RightFoot
			{
				OFFSET 0.00000 0.00000 -10.93085
				CHANNELS 3 Xrotation Yrotation Zrotation
				JOINT RightToeBase
				{
					OFFSET 0.00000 -4.08727 -1.48765
					CHANNELS 3 Xrotation Yrotation Zrotation
					End Site
					{
						OFFSET 0.00000 -1.89187 -0.00000
					}
				}
			}
		}
	}
	JOINT LeftUpLeg
	{
		OFFSET 2.33857 0.00000 -0.68318
		CHANNELS 3 Xrotation Yrotation Zrotation
		JOINT LeftLeg
		{
			OFFSET 0.00000 0.00000 -10.74496
			CHANNELS 3 Xrotation Yrotation Zrotation
			JOINT LeftFoot
			{
				OFFSET 0.00000 0.00000 -10.93085
				CHANNELS 3 Xrotation Yrotation Zrotation
				JOINT LeftToeBase
				{
					OFFSET 0.00000 -4.08727 -1.48765
					CHANNELS 3 Xrotation Yrotation Zrotation
					End Site
					{
						OFFSET 0.00000 -1.89187 -0.00000
					}
				}
			}
		}
	}
}
MOTION
Frames: 12
Frame Time:	0.0333333
 -1.1281 -112.4168 24.1676 -1.2165 2.6923 173.0914 -0.9607 5.8061 0.2346 -1.2726 0.8300 0.4409 8.6190 1.0170 6.5290 -2.0295 -0.6742 2.1467 -13.2699 -1.7629 -2.3496 8.4443 -2.8168 -3.2154 -2.0230 -0.4707 10.5166 -8.4808 -16.2782 67.7694 0.0000 0.0000 11.4336 -4.9641 3.1936 -0.2644 0.0000 -0.0000 0.0000 -0.0000 0.0000 -0.0000 -7.6293 -7.5857 -12.3350 -6.2771 13.9555 -78.0998 -0.0000 0.0000 3.5539 -0.8009 -7.2229 -3.2590 -0.0000 0.0000 -0.0000 -0.0000 -0.0000 -0.0000 -29.5233 2.7994 3.1150 38.3030 0.0000 0.0000 -7.1575 -3.6524 -3.4999 0.4990 0.0000 0.0000 -1.9978 6.9230 12.5478 10.0539 0.0000 0.0000 -12.3546 -2.7768 -2.9794 -5.0907 0.0000 -0.0000
 -1.1011 -112.2699 24.1747 -1.1374 2.3205 173.6199 -1.0230 5.7602 0.2045 -1.2938 0.8086 0.4019 8.7431 0.8446 6.0811 -2.0178 -0.5820 1.9048 -13.5131 -1.2177 -2.0301 8.6089 -2.6456 -3.3090 -2.2071 -0.9738 11.3940 -7.1529 -15.7339 68.9454 0.0000 0.0000 11.0795 -4.4601 1.5794 -0.2066 0.0000 0.0000 0.0000 0.0000 -0.0000 0.0000 -8.1143 -7.9527 -12.9059 -5.5126 14.3892 -79.4909 -0.0000 0.0000 3.8587 -0.4155 -6.4102 -3.2095 0.0000 0.0000 -0.0000 -0.0000 -0.0000 -0.0000 -29.8447 2.5269 2.2623 35.3083 0.0000 0.0000 -6.0845 -3.9507 -2.3237 0.3769 0.0000 0.0000 -1.5739 6.5150 12.2202 10.2339 0.0000 0.0000 -12.6715 -2.8007 -3.1669 -4.8901 0.0000 -0.0000
 -1.0554 -112.0908 24.1802 -0.8503 1.8549 174.3902 -1.0258 5.6500 0.1975 -1.3195 0.7384 0.3464 9.0631 0.6326 5.5744 -1.9925 -0.4272 1.6778 -13.8076 -0.5334 -1.7332 8.9371 -2.1590 -3.3461 -2.3983 -1.5033 12.0863 -6.3986 -15.7143 69.6255 0.0000 0.0000 10.9956 -4.1061 -0.2181 -0.4962 0.0000 -0.0000 -0.0000 -0.0000 -0.0000 0.0000 -8.4570 -8.2136 -13.3766 -4.8798 14.9726 -80.7113 -0.0000 0.0000 3.8986 0.2709 -5.5239 -3.1966 0.0000 0.0000 -0.0000 0.0000 0.0000 0.0000 -29.5578 2.2871 1.1214 31.7403 0.0000 0.0000 -5.1338 -4.1466 -1.7062 -0.0241 0.0000 -0.0000 -0.8523 5.9799 11.6577 10.4483 0.0000 0.0000 -13.0846 -2.7408 -3.3975 -4.9127 0.0000 -0.0000
 -1.0182 -111.9192 24.1710 -0.7678 1.7099 175.0743 -1.1237 5.6243 0.1888 -1.3711 0.6636 0.3056 9.2352 0.5257 5.2031 -1.9715 -0.1893 1.4743 -13.9827 0.3806 -1.3836 9.3443 -1.4709 -3.3314 -2.5544 -1.9532 12.6869 -6.0838 -15.8147 69.9608 0.0000 0.0000 11.1157 -3.5259 -2.2913 -0.9396 0.0000 -0.0000 -0.0000 -0.0000 -0.0000 0.0000 -8.6294 -8.6443 -13.7965 -4.2607 15.9616 -81.6818 -0.0000 0.0000 3.8389 0.8275 -4.5259 -3.2601 0.0000 0.0000 -0.0000 0.0000 -0.0000 0.0000 -29.4379 2.3442 -0.0964 28.1489 0.0000 0.0000 -4.4360 -4.1987 -1.1693 -0.5838 0.0000 -0.0000 -0.4392 5.7362 11.2382 10.7521 0.0000 0.0000 -13.5319 -2.5619 -3.6802 -5.0521 0.0000 -0.0000
 -0.9848 -111.7589 24.1512 -0.9016 1.7875 175.7531 -1.2449 5.5851 0.1621 -1.4255 0.6018 0.2796 9.2086 0.5315 4.8798 -1.9790 0.1365 1.2257 -14.0287 1.6157 -0.9335 9.7003 -0.8104 -3.3211 -2.7082 -2.3887 13.1761 -5.9860 -15.5991 70.2231 0.0000 0.0000 11.3990 -2.6431 -4.2509 -1.2684 0.0000 0.0000 -0.0000 0.0000 -0.0000 0.0000 -8.6876 -9.1710 -14.1876 -3.4944 17.1002 -82.4652 -0.0000 0.0000 3.9900 1.0578 -3.6214 -3.3307 -0.0000 0.0000 0.0000 0.0000 -0.0000 0.0000 -29.4761 2.6163 -1.3925 24.7229 0.0000 0.0000 -3.8194 -3.9102 -0.4152 -1.0084 0.0000 -0.0000 -0.3793 5.6614 11.0081 11.2256 0.0000 0.0000 -14.0515 -2.2777 -4.1192 -5.1451 0.0000 -0.0000
 -0.9319 -111.5804 24.1323 -1.0794 1.7742 176.6972 -1.4022 5.4345 0.1478 -1.4680 0.5052 0.2406 9.2331 0.5382 4.4356 -1.9976 0.5568 0.9379 -14.0673 3.1452 -0.4889 9.9766 -0.2440 -3.2999 -3.0122 -2.8298 13.3424 -5.9959 -15.5088 70.5266 0.0000 0.0000 11.9044 -1.8922 -5.7813 -1.5038 0.0000 -0.0000 0.0000 -0.0000 0.0000 0.0000 -8.7016 -9.6204 -14.5848 -2.4875 18.0793 -83.2536 -0.0000 0.0000 4.4840 1.3337 -3.0591 -3.3391 0.0000 0.0000 -0.0000 -0.0000 -0.0000 0.0000 -29.3712 2.8351 -2.5821 21.6391 0.0000 0.0000 -3.1847 -3.1614 0.3497 -1.2921 0.0000 -0.0000 -0.3600 5.3990 10.7468 11.8069 0.0000 0.0000 -14.6615 -1.8370 -4.7718 -5.1938 0.0000 -0.0000
 -0.8545 -111.3598 24.1166 -1.0735 1.6371 177.8552 -1.4952 5.2118 0.1625 -1.5072 0.3789 0.1959 9.3669 0.4950 3.9267 -1.9990 1.0314 0.6884 -14.0818 4.9448 -0.1327 10.2599 0.3042 -3.1724 -3.4499 -3.0686 13.1623 -6.0930 -15.7630 70.7737 0.0000 0.0000 12.5742 -1.6150 -6.8724 -1.7073 0.0000 -0.0000 0.0000 -0.0000 0.0000 0.0000 -8.5578 -9.8384 -15.0188 -1.3319 18.7256 -84.0920 -0.0000 0.0000 5.1786 1.9528 -2.7133 -3.3356 0.0000 0.0000 0.0000 0.0000 -0.0000 -0.0000 -28.8929 2.9392 -3.3495 19.1894 0.0000 0.0000 -2.9986 -2.1659 0.8892 -1.6537 0.0000 -0.0000 0.0902 4.9657 10.3238 12.1320 0.0000 0.0000 -15.2362 -1.2579 -5.5020 -5.3047 0.0000 -0.0000
 -0.7719 -111.1149 24.0936 -1.1528 1.7090 178.9308 -1.6627 5.0645 0.2223 -1.5883 0.2736 0.1664 9.4456 0.5187 3.4889 -1.9931 1.5371 0.5033 -14.0385 6.9679 0.2217 10.6231 0.8850 -2.8535 -3.8364 -3.0975 12.9284 -6.3018 -15.6401 70.8900 0.0000 0.0000 13.1733 -1.5806 -7.7152 -1.8072 0.0000 0.0000 -0.0000 0.0000 -0.0000 0.0000 -8.1139 -9.6532 -15.4040 -0.2096 18.8793 -84.8767 -0.0000 0.0000 5.9071 2.6415 -2.1578 -3.3928 0.0000 -0.0000 -0.0000 0.0000 0.0000 -0.0000 -28.4696 3.1985 -3.6294 17.5550 0.0000 0.0000 -3.4338 -1.2993 1.3811 -2.0621 0.0000 -0.0000 0.7765 4.7945 9.6999 11.9027 0.0000 0.0000 -15.6433 -0.7561 -5.9812 -5.4602 0.0000 -0.0000
 -0.6892 -110.8594 24.0625 -1.4997 1.9954 179.8270 -1.9879 4.8856 0.3428 -1.7415 0.2104 0.1494 9.4933 0.7119 3.1218 -2.0057 2.0792 0.3034 -14.0592 9.1443 0.7390 11.0067 1.4814 -2.3208 -4.0971 -3.2475 12.7876 -6.6823 -14.6660 71.0524 0.0000 0.0000 13.5186 -1.3330 -8.5246 -1.8213 -0.0000 -0.0000 0.0000 -0.0000 -0.0000 0.0000 -7.5539 -8.9393 -15.6184 0.8622 18.6145 -85.5114 -0.0000 0.0000 6.5891 3.1503 -1.1353 -3.4860 0.0000 0.0000 -0.0000 -0.0000 0.0000 -0.0000 -28.2955 3.6299 -3.5572 16.6066 0.0000 0.0000 -3.6667 -0.6803 1.8476 -2.2295 0.0000 -0.0000 1.4840 4.9079 8.8480 11.1224 0.0000 0.0000 -15.9040 -0.4068 -6.0644 -5.5157 0.0000 -0.0000
 -0.5964 -110.5791 24.0297 -1.9535 2.3033 -179.4030 -2.3753 4.5656 0.5191 -1.9523 0.1462 0.1330 9.6411 1.0600 2.7900 -2.0199 2.6431 0.0520 -14.2343 11.4266 1.4991 11.2609 2.1208 -1.5741 -4.3554 -3.6612 12.5595 -7.2500 -13.6112 71.4409 0.0000 0.0000 13.7254 -0.7402 -9.3447 -1.8934 0.0000 -0.0000 0.0000 0.0000 -0.0000 -0.0000 -7.1338 -7.9189 -15.6433 1.9211 18.2476 -86.0059 -0.0000 0.0000 7.2206 3.6018 0.2701 -3.5949 0.0000 -0.0000 0.0000 0.0000 -0.0000 0.0000 -28.2501 4.0231 -3.0746 16.5341 0.0000 0.0000 -3.1950 -0.2278 1.8633 -2.0201 0.0000 -0.0000 2.2956 5.0349 7.8466 10.0433 0.0000 0.0000 -16.0766 -0.0238 -5.8839 -5.4429 0.0000 -0.0000
 -0.4880 -110.2597 23.9916 -2.4267 2.6077 -178.7666 -2.7803 4.1653 0.6881 -2.1674 0.0621 0.1177 9.7882 1.5141 2.5507 -2.0022 3.1729 -0.2071 -14.4493 13.8275 2.4833 11.2857 2.8759 -0.6518 -4.6604 -4.0912 12.1564 -7.9079 -13.3240 71.9884 0.0000 0.0000 13.9696 -0.0937 -9.9467 -2.0044 0.0000 0.0000 0.0000 -0.0000 -0.0000 0.0000 -6.8209 -7.0808 -15.5728 2.9218 18.0104 -86.3492 -0.0000 0.0000 7.7686 4.1270 1.8410 -3.7208 -0.0000 0.0000 -0.0000 -0.0000 0.0000 -0.0000 -28.2156 4.2748 -2.3968 17.5200 0.0000 0.0000 -2.8312 -0.0882 1.3479 -1.6056 0.0000 -0.0000 3.1350 5.0835 6.9387 9.0746 0.0000 0.0000 -16.2495 0.5093 -5.6899 -5.4046 0.0000 -0.0000
 -0.3632 -109.9021 23.9446 -2.9950 2.8907 -178.3387 -3.2168 3.6303 0.8351 -2.4211 -0.0169 0.1147 9.8276 2.0659 2.4227 -1.9751 3.6620 -0.4566 -14.6759 16.3633 3.6612 11.1426 3.8173 0.3341 -4.8495 -4.4901 11.8395 -8.5756 -13.2403 72.4882 0.0000 0.0000 14.2612 0.2162 -10.1382 -2.0237 -0.0000 -0.0000 -0.0000 -0.0000 -0.0000 -0.0000 -6.4258 -6.5683 -15.3856 3.8037 17.5725 -86.5808 -0.0000 0.0000 8.2213 4.5376 3.5286 -3.7923 0.0000 -0.0000 0.0000 -0.0000 0.0000 0.0000 -27.8738 4.3233 -2.1286 18.6497 0.0000 0.0000 -3.1462 -0.3618 0.8497 -1.2889 0.0000 -0.0000 3.7795 5.0263 6.3922 8.4901 0.0000 0.0000 -16.5541 1.1089 -5.6315 -5.4831 0.0000 -0.0000
